<svg version="1.1" id="Layer_1" xmlns="http://www.w3.org/2000/svg" xmlns:xlink="http://www.w3.org/1999/xlink" x="0px" y="0px"
	 width="100%" viewBox="0 0 368 512" enable-background="new 0 0 368 512" xml:space="preserve">
<path fill="#000000" opacity="1.000000" stroke="none" 
	d="
M255.921844,35.927002 
	C310.496643,61.076775 343.661743,102.976707 353.672363,161.692596 
	C361.713165,208.854462 349.881958,252.216339 322.495850,291.295135 
	C307.526550,312.655762 288.314606,329.897766 268.096283,346.076843 
	C253.145767,358.040527 237.720062,369.433228 224.465103,383.381927 
	C216.499893,391.763947 209.818237,401.073456 204.118866,411.106995 
	C200.680679,417.159760 195.258804,419.653656 189.082993,417.950348 
	C183.497589,416.409882 179.688965,411.074951 179.697601,404.676910 
	C179.705994,398.464661 182.382126,393.023285 185.049500,387.675751 
	C193.512268,370.709717 207.061935,358.110779 221.391220,346.302612 
	C240.406860,330.632507 260.360931,316.110535 277.977386,298.744934 
	C304.178711,272.916626 321.650421,242.502914 326.456726,205.735123 
	C333.544220,151.516541 306.399109,94.722916 255.352676,67.284805 
	C233.356918,55.461807 210.069427,48.457451 185.041779,49.354118 
	C123.492485,51.559250 78.504860,80.273834 50.492588,135.194336 
	C40.473289,154.838043 34.445938,175.685638 32.970867,197.776199 
	C32.851555,199.562973 32.455917,201.482529 31.626932,203.041687 
	C29.355433,207.313889 24.138613,207.423264 21.472431,203.375366 
	C20.254454,201.526169 19.808146,199.434692 19.737732,197.210037 
	C17.585894,129.223404 53.623055,66.280579 116.008987,37.309174 
	C143.783783,24.410831 173.003342,19.658110 203.576950,22.477747 
	C221.685287,24.147779 238.938553,28.615408 255.921844,35.927002 
z"/>
<path fill="#000000" opacity="1.000000" stroke="none" 
	d="
M190.808105,80.753929 
	C226.154739,83.857727 254.873276,98.697006 274.309082,127.970116 
	C299.411469,165.777847 298.853668,205.300415 277.616211,244.744614 
	C266.896576,264.654083 250.336777,279.419739 232.719376,293.094818 
	C217.204086,305.138184 200.912689,316.256317 186.911438,330.138641 
	C173.548859,343.387756 164.604309,359.003906 162.232483,378.047882 
	C161.089066,387.228668 154.550400,392.892334 146.162842,392.730652 
	C137.228928,392.558411 130.538086,386.415253 129.648788,377.282776 
	C128.129959,361.685455 133.605759,347.805420 140.864090,334.549438 
	C148.905258,319.863739 160.611267,308.258179 173.323120,297.607666 
	C188.769348,284.666168 205.358032,273.106323 220.065201,259.278473 
	C236.136078,244.168427 248.405426,226.857117 253.200317,204.678024 
	C261.851349,164.662033 234.733902,124.902679 194.376663,119.201561 
	C164.474625,114.977417 141.508255,126.740608 123.595573,149.996307 
	C120.656319,153.812302 117.868393,157.779404 115.846001,162.211456 
	C112.490166,169.565735 106.658348,173.287094 99.467140,172.722351 
	C91.743614,172.115784 85.102287,166.774826 82.908676,159.557236 
	C80.350540,151.140213 82.532616,143.343781 86.328537,135.971497 
	C98.631355,112.077438 118.605095,97.028526 143.241425,87.657440 
	C158.389694,81.895401 174.192505,80.031502 190.808105,80.753929 
z"/>
<path fill="#000000" opacity="1.000000" stroke="none" 
	d="
M171.206467,467.926270 
	C163.170090,483.745789 144.565643,489.140320 130.309265,480.102020 
	C115.228340,470.540985 111.386497,451.872284 122.081619,438.156738 
	C129.595154,428.521332 140.098404,425.764771 151.622833,428.268921 
	C163.457153,430.840424 170.500061,438.796417 173.283661,450.554016 
	C174.684174,456.469696 173.629181,462.082306 171.206467,467.926270 
z"/>
</svg>